<svg class="zds-icon RC794g X9n9TI DlJ4rT pVrzNP H3jvU7" height="1em" width="1em" focusable="false" fill="currentColor" viewBox="0 0 24 24" aria-labelledby="show-502" role="img" aria-hidden="false">
                  <title id="show-502">Show</title>
                  <path d="M23.867 11.573c-3.149-4.565-7.363-7.08-11.866-7.08H12c-4.503 0-8.718 2.515-11.867 7.08a.753.753 0 0 0 .002.857c3.179 4.565 7.406 7.077 11.908 7.077h.053c4.485-.02 8.666-2.535 11.774-7.083a.754.754 0 0 0-.003-.85zM12.09 18.004h-.046c-3.856 0-7.521-2.127-10.37-6.005 2.821-3.876 6.472-6.003 10.328-6.003 3.856 0 7.508 2.128 10.329 6.005-2.782 3.86-6.403 5.986-10.24 6.003z"></path>
                  <path d="M12 7.498a4.502 4.502 0 1 0 0 9.004 4.502 4.502 0 0 0 0-9.004zM12 15a3 3 0 1 1 0-6 3 3 0 0 1 0 6z"></path>
                </svg>