<svg class="zds-icon RC794g X9n9TI DlJ4rT pVrzNP H3jvU7" height="1em" width="1em" focusable="false" fill="currentColor" viewBox="0 0 24 24" aria-labelledby="lock-closed-61" role="img" aria-hidden="false"><title id="lock-closed-61">lock-closed</title><path d="M18.75 7.532V6.75a6.75 6.75 0 1 0-13.5 0v.782A2.994 2.994 0 0 0 2.566 10.5V21a3.004 3.004 0 0 0 3 3h12.868a3.004 3.004 0 0 0 3-3V10.5a2.993 2.993 0 0 0-2.684-2.968zM12 1.5c2.9 0 5.25 2.35 5.25 5.25v.75H6.75v-.75C6.75 3.85 9.1 1.5 12 1.5zM19.934 21c-.001.828-.672 1.5-1.5 1.5H5.566c-.828 0-1.499-.672-1.5-1.5V10.5c.001-.828.672-1.5 1.5-1.5H18.434c.828 0 1.5.672 1.5 1.5V21z"></path><path d="M12 11.999a2.616 2.616 0 0 0-.75 5.128v1.623a.75.75 0 1 0 1.5 0v-1.624a2.62 2.62 0 0 0 1.875-2.502A2.625 2.625 0 0 0 12 11.999zm0 3.75a1.125 1.125 0 1 1 0-2.25 1.125 1.125 0 0 1 0 2.25z"></path></svg>