<svg class="zds-icon RC794g X9n9TI DlJ4rT pVrzNP H3jvU7" height="2em" width="2em" focusable="false" fill="currentColor" viewBox="0 0 24 24" aria-labelledby="email-402" role="img" aria-hidden="false"><title id="email-402">email</title><path d="M21 3H3a3.004 3.004 0 0 0-3 3v12a3.004 3.004 0 0 0 3 3h18a3.004 3.004 0 0 0 3-3V6a3.004 3.004 0 0 0-3-3zm0 1.5c.318 0 .597.122.84.291l-8.816 8.229a1.505 1.505 0 0 1-2.048 0L2.16 4.79c.243-.17.522-.29.84-.291h18zm0 15H3c-.828 0-1.5-.672-1.5-1.5V6.225l8.454 7.89A2.988 2.988 0 0 0 12 14.92a2.987 2.987 0 0 0 2.046-.804l8.454-7.89V18c0 .828-.672 1.5-1.5 1.5z"></path></svg>